<?xml version="1.0" encoding="UTF-8" standalone="no"?>
<!-- Generator: Adobe Illustrator 22.1.0, SVG Export Plug-In . SVG Version: 6.00 Build 0)  -->

<svg
   version="1.1"
   id="Layer_1"
   x="0px"
   y="0px"
   viewBox="0 0 34.700001 48.200001"
   xml:space="preserve"
   sodipodi:docname="logo_simplified_white.svg"
   width="34.700001"
   height="48.200001"
   inkscape:version="1.4.2 (f4327f4, 2025-05-13)"
   xmlns:inkscape="http://www.inkscape.org/namespaces/inkscape"
   xmlns:sodipodi="http://sodipodi.sourceforge.net/DTD/sodipodi-0.dtd"
   xmlns="http://www.w3.org/2000/svg"
   xmlns:svg="http://www.w3.org/2000/svg"><defs
   id="defs6">
	
	

		
		
		
	</defs><sodipodi:namedview
   id="namedview6"
   pagecolor="#ffffff"
   bordercolor="#000000"
   borderopacity="0.25"
   inkscape:showpageshadow="2"
   inkscape:pageopacity="0.0"
   inkscape:pagecheckerboard="0"
   inkscape:deskcolor="#d1d1d1"
   inkscape:zoom="5.4044118"
   inkscape:cx="-1.9428571"
   inkscape:cy="16.745578"
   inkscape:window-width="1920"
   inkscape:window-height="974"
   inkscape:window-x="-11"
   inkscape:window-y="-11"
   inkscape:window-maximized="1"
   inkscape:current-layer="g5" />
<g
   id="g5"
   transform="translate(-31.65,-9.9)">
			
			
			<g
   id="g6"
   transform="translate(29.25,6.1)"
   style="fill:#ffffff"><path
     d="M 5.2,22.2 H 2.5 v 13 c 0,0.7 0.1,1.4 0.4,2 0.3,0.6 0.6,1.2 1.1,1.6 0.5,0.5 1,0.8 1.6,1.1 0.6,0.3 1.3,0.4 2,0.4 h 9.6 V 37.6 H 7.5 C 6.9,37.6 6.3,37.4 5.9,36.9 5.4,36.5 5.2,35.9 5.2,35.2 V 29 H 17.1 V 26.3 H 5.2 Z"
     id="path1"
     style="fill:#ffffff" /><path
     d="m 3.9,18.7 c 0.5,0.5 1,0.8 1.6,1.1 0.6,0.3 1.3,0.4 2,0.4 h 20.2 c 0.7,0 1.4,-0.1 2,-0.4 0.6,-0.3 1.2,-0.6 1.6,-1.1 0.5,-0.5 0.8,-1 1.1,-1.6 0.3,-0.6 0.4,-1.3 0.4,-2 V 8.9 C 32.8,8.2 32.7,7.6 32.4,6.9 32.1,6.3 31.8,5.7 31.3,5.3 30.8,4.8 30.3,4.5 29.7,4.2 29.1,3.9 28.4,3.8 27.7,3.8 H 7.5 C 6.8,3.8 6.1,3.9 5.5,4.2 4.9,4.5 4.3,4.9 3.9,5.4 3.4,5.8 3.1,6.4 2.8,7 2.5,7.6 2.4,8.3 2.4,9 v 6.2 c 0,0.7 0.1,1.3 0.4,2 0.3,0.5 0.6,1.1 1.1,1.5 z M 5.1,8.9 C 5.1,8.2 5.3,7.7 5.8,7.2 6.3,6.8 6.8,6.5 7.4,6.5 h 20.2 c 0.6,0 1.2,0.2 1.6,0.7 0.4,0.4 0.7,1 0.7,1.7 v 1.8 H 5.1 Z m 0,4.6 h 24.8 v 1.7 c 0,0.6 -0.2,1.2 -0.7,1.6 -0.4,0.5 -1,0.7 -1.6,0.7 H 7.5 C 6.9,17.5 6.3,17.3 5.9,16.8 5.4,16.3 5.2,15.8 5.2,15.2 v -1.7 z"
     id="path2"
     style="fill:#ffffff" /><polygon
     points="37.1,50.2 25.6,37.4 36.6,25.6 34.6,23.8 23,36.1 23,23.3 20.3,23.3 20.3,51.4 23,51.4 23,38.7 35,52 "
     id="polygon2"
     style="fill:#ffffff" /></g>
			
			<g
   id="g4">
				
			</g>
		</g>

</svg>
